<?xml version="1.0" standalone="no"?><!DOCTYPE svg PUBLIC "-//W3C//DTD SVG 1.1//EN" "http://www.w3.org/Graphics/SVG/1.1/DTD/svg11.dtd"><svg class="icon" width="200px" height="200.00px" viewBox="0 0 1024 1024" version="1.1" xmlns="http://www.w3.org/2000/svg"><path fill="#ffffff" d="M743.838206 384.733455c-87.422072 0-146.035004 43.980677-170.026418 85.654822l-2.403746 0 0-72.467475L399.064858 397.920802l0 530.393929 179.524746 0 0-262.396175c0-69.170382 14.360056-136.185682 107.859543-136.185682 92.142583 0 93.368504 79.127152 93.368504 140.646274l0 257.935584 179.566702 0 0-290.925952C959.385377 494.586398 925.795351 384.733455 743.838206 384.733455zM101.006462 928.271752l149.266605 0L250.273067 384.453069 101.006462 384.453069 101.006462 928.271752zM175.636183 94.431719c-61.827137 0-111.952768 48.678676-111.952768 108.754936 0 60.078307 50.125631 108.777449 111.952768 108.777449 61.829184 0 111.954815-48.699142 111.954815-108.777449C287.590997 143.110395 237.465366 94.431719 175.636183 94.431719z" /></svg>